<?xml version="1.0" encoding="utf-8"?>
<!-- Generator: Adobe Illustrator 22.1.0, SVG Export Plug-In . SVG Version: 6.00 Build 0)  -->
<svg version="1.1" id="图层_1" xmlns="http://www.w3.org/2000/svg" xmlns:xlink="http://www.w3.org/1999/xlink" x="0px" y="0px"
	 viewBox="0 0 24 24" style="enable-background:new 0 0 24 24;" xml:space="preserve">
<path d="M22.6,14.5c-0.1-0.1-0.1-0.1-0.3-0.2c-0.5-0.1-0.8-0.5-1.2-0.8c-0.3-0.4-0.5-0.9-0.5-1.4c0-0.6,0.2-1,0.5-1.5
	c0.3-0.5,0.7-0.7,1.2-0.9c0.1-0.1,0.3-0.2,0.4-0.3C23,9.2,23,9,23,8.7c-0.1-0.5-0.2-0.9-0.4-1.4c-0.2-0.5-0.4-0.8-0.6-1
	c-0.1-0.1-0.3-0.2-0.5-0.2c-0.2-0.1-0.3,0-0.5,0.1c-0.5,0.3-1,0.3-1.4,0.3c-0.6-0.1-1-0.3-1.4-0.6c-0.4-0.3-0.6-0.8-0.7-1.3
	c-0.1-0.5,0-1,0.2-1.4c0-0.1,0-0.2,0.1-0.3c0.1-0.1,0-0.3-0.1-0.4c-0.1-0.2-0.3-0.4-0.5-0.6c-0.3-0.2-0.5-0.3-0.7-0.5
	c-0.3-0.1-0.5-0.2-0.8-0.3C15.4,1.1,15.2,1,15,1c-0.1,0-0.3,0.1-0.3,0.1c-0.2,0.1-0.3,0.3-0.3,0.4c-0.2,0.5-0.5,0.8-0.9,1.2
	C13,3,12.5,3.1,11.9,3.1s-1-0.1-1.4-0.5C10.1,2.4,9.9,2,9.7,1.6C9.6,1.5,9.5,1.3,9.4,1.2C9.3,1.1,9.1,1,8.9,1C8.8,1,8.6,1.1,8.3,1.1
	C8,1.1,7.7,1.2,7.5,1.3S6.9,1.6,6.8,1.8C6.5,2,6.3,2.2,6.2,2.4C6.2,2.4,6.2,2.6,6.2,2.7c0,0.1,0,0.2,0.1,0.3c0,0.1,0.1,0.3,0.1,0.5
	v0.7C6.2,4.5,6.2,4.8,6.1,5C6,5.3,5.9,5.5,5.7,5.7C5.3,6.1,4.9,6.3,4.4,6.4c-0.5,0.1-1,0-1.5-0.2c-0.1,0-0.3-0.1-0.4-0.1
	c-0.1-0.1-0.3,0-0.4,0.1L1.6,6.6C1.5,6.8,1.5,7,1.3,7.3C1.2,7.5,1.1,7.7,1.1,8C1.1,8.3,1,8.5,1,8.7s0.1,0.4,0.2,0.6
	c0.1,0.2,0.2,0.3,0.3,0.3c0.5,0.2,0.9,0.5,1.3,0.9C3.2,11,3.4,11.5,3.4,12c0,0.5-0.2,1-0.6,1.4c-0.4,0.4-0.8,0.7-1.3,0.9
	c-0.3,0.1-0.4,0.3-0.5,0.6C1,15.2,1,15.4,1.2,15.7c0.1,0.3,0.1,0.6,0.3,0.8c0.1,0.3,0.3,0.5,0.4,0.8c0.1,0.3,0.3,0.4,0.5,0.5
	c0.2,0.1,0.5,0.1,0.6,0.1c0.4-0.1,0.7-0.2,1-0.2c0.3-0.1,0.6,0,0.9,0.1c0.3,0.1,0.6,0.2,0.8,0.5C6,18.5,6.2,19,6.2,19.4
	c0.1,0.5,0,0.8-0.2,1.2c-0.1,0.3-0.2,0.5-0.2,0.6c0,0.1,0.1,0.3,0.1,0.4c0.1,0.1,0.3,0.3,0.5,0.5c0.2,0.1,0.5,0.3,0.7,0.4
	c0.3,0.1,0.6,0.3,0.8,0.3C8.3,22.9,8.6,23,8.8,23c0.2,0,0.4-0.1,0.6-0.2c0.1-0.1,0.3-0.2,0.3-0.4c0.2-0.5,0.5-0.9,0.9-1.2
	c0.4-0.3,0.9-0.5,1.4-0.5c0.5,0,1,0.2,1.4,0.5c0.5,0.4,0.7,0.8,0.9,1.3c0.1,0.1,0.1,0.2,0.3,0.3c0.1,0.1,0.3,0.2,0.4,0.2
	c0.2,0,0.5-0.1,0.7-0.1c0.3-0.1,0.5-0.1,0.8-0.3c0.2-0.1,0.5-0.3,0.6-0.4c0.2-0.1,0.4-0.3,0.5-0.4c0.2-0.3,0.2-0.6,0.1-1
	c-0.2-0.5-0.3-0.9-0.2-1.4c0.1-0.5,0.3-1,0.6-1.4c0.2-0.2,0.4-0.3,0.6-0.4c0.2-0.1,0.5-0.1,0.7-0.1c0.3-0.1,0.5-0.1,0.7,0
	s0.5,0.1,0.6,0.1c0.1,0,0.3,0.1,0.5,0.1c0.2,0,0.3,0,0.5-0.1c0.2-0.1,0.4-0.3,0.5-0.5c0.1-0.2,0.3-0.5,0.4-0.7
	c0.1-0.3,0.2-0.6,0.3-0.8c0-0.3,0.1-0.5,0-0.7C22.8,14.8,22.7,14.6,22.6,14.5z M14.1,8.3c0.1-0.2,0.2-0.3,0.3-0.5
	c0.1-0.1,0.3-0.2,0.5-0.3s0.4-0.1,0.6-0.1s0.4,0,0.6,0.1c0.2,0.1,0.3,0.2,0.5,0.3c0.1,0.1,0.2,0.3,0.3,0.5C17,8.5,17,8.7,17,8.9
	s0,0.4-0.1,0.6c-0.1,0.2-0.2,0.3-0.3,0.5c-0.1,0.1-0.3,0.2-0.5,0.3c-0.2,0.1-0.4,0.1-0.6,0.1s-0.4,0-0.6-0.1
	c-0.2-0.1-0.3-0.2-0.5-0.3c-0.1-0.1-0.2-0.3-0.3-0.5C14.1,9.3,14,9.1,14,8.9S14.1,8.5,14.1,8.3z M7.1,8.3C7.2,8.2,7.3,8,7.4,7.9
	c0.1-0.1,0.3-0.2,0.5-0.3s0.4-0.1,0.6-0.1l0.6,0.1c0.2,0.1,0.3,0.2,0.5,0.3C9.7,8,9.8,8.1,9.9,8.3C9.9,8.5,10,8.7,10,8.9
	s0,0.4-0.1,0.6C9.8,9.7,9.7,9.8,9.5,10c-0.1,0.1-0.3,0.2-0.5,0.3c-0.2,0.1-0.4,0.1-0.6,0.1s-0.4,0-0.6-0.1c-0.2-0.1-0.3-0.2-0.5-0.3
	C7.3,9.8,7.2,9.7,7.1,9.5C7,9.3,7,9.1,7,8.9S7,8.5,7.1,8.3z M12,18c-3,0-5.4-2.2-5.9-5h2.1c0.4,1.7,2,3,3.9,3c1.9,0,3.4-1.3,3.9-3
	h2.1C17.4,15.8,15,18,12,18z"/>
</svg>
