<?xml version="1.0" encoding="utf-8"?>
<!-- Generator: Adobe Illustrator 22.1.0, SVG Export Plug-In . SVG Version: 6.00 Build 0)  -->
<svg version="1.1" id="图层_1" xmlns="http://www.w3.org/2000/svg" xmlns:xlink="http://www.w3.org/1999/xlink" x="0px" y="0px"
	 viewBox="0 0 24 24" style="enable-background:new 0 0 24 24;" xml:space="preserve">
<g>
	<path d="M15.6,11.5h2.2l4.3-3.7c-0.2-0.4-0.4-0.9-0.6-1.3L15.6,11.5L15.6,11.5z M12.5,1v1.8l1.8-1.5C13.7,1.1,13.1,1,12.5,1L12.5,1
		z M21.6,11.5l1.3-1.1c-0.1-0.5-0.2-1-0.4-1.5l-3,2.6L21.6,11.5L21.6,11.5L21.6,11.5z M18,2.8l-5.5,4.7v1.9l6.7-5.7
		C18.8,3.3,18.4,3.1,18,2.8L18,2.8z M15.6,1.6l-3.1,2.6v1.9L17,2.2C16.6,2,16.1,1.8,15.6,1.6L15.6,1.6z M20.9,5.5
		c-0.3-0.4-0.6-0.7-0.9-1.1l-7.5,6.4v0.6H14L20.9,5.5z M11.5,1C5.7,1.3,1,6.1,1,12c0,2.6,0.9,4.9,2.3,6.8l8.2-7V1z M12.2,12.5
		l-8.2,7c2,2.1,4.8,3.5,8,3.5c5.9,0,10.7-4.7,11-10.5H12.2z M12.2,12.5"/>
</g>
</svg>
