<?xml version="1.0" encoding="utf-8"?>
<!-- Generator: Adobe Illustrator 22.1.0, SVG Export Plug-In . SVG Version: 6.00 Build 0)  -->
<svg version="1.1" id="图层_1" xmlns="http://www.w3.org/2000/svg" xmlns:xlink="http://www.w3.org/1999/xlink" x="0px" y="0px"
	 viewBox="0 0 24 24" style="enable-background:new 0 0 24 24;" xml:space="preserve">
<g>
	<path d="M20.9,17.6c-1.1,0-1.1-4.2-1.1-4.2v-3c0-3.7-2.4-6.9-5.6-7.9c0-0.1,0-0.2,0-0.4C14.2,1,13.2,0,12,0c-1.2,0-2.2,1-2.2,2.1
		c0,0.1,0,0.2,0,0.4c-3.1,1-5.6,4.2-5.6,7.9v2.9c0,0,0,4.2-1.1,4.3c-0.6,0-1.1,0.5-1.1,1.1c0,0.6,0.5,1.1,1.1,1.1h17.8
		c0.6,0,1.1-0.5,1.1-1.1C22,18.1,21.5,17.6,20.9,17.6z M16.4,10.3l-5.3,7.5C11,17.9,11,18,10.9,18h0c0,0-0.1,0-0.1,0
		c-0.1,0-0.2-0.1-0.1-0.2l0.9-5.1H7.8c-0.1,0-0.2,0-0.2-0.1c-0.1-0.1,0-0.2,0-0.2l5.8-7.5c0.1-0.1,0.2-0.1,0.3-0.1
		c0.1,0,0.1,0.1,0.1,0.2L12.9,10h3.3c0.1,0,0.2,0,0.2,0.1C16.4,10.2,16.4,10.3,16.4,10.3z"/>
	<path d="M12,24c1.9,0,3.3-1.4,3.3-3.2H8.7C8.7,22.6,10.2,24,12,24z"/>
</g>
</svg>
