<?xml version="1.0" encoding="utf-8"?>
<!-- Generator: Adobe Illustrator 22.1.0, SVG Export Plug-In . SVG Version: 6.00 Build 0)  -->
<svg version="1.1" id="图层_1" xmlns="http://www.w3.org/2000/svg" xmlns:xlink="http://www.w3.org/1999/xlink" x="0px" y="0px"
	 viewBox="0 0 24 24" style="enable-background:new 0 0 24 24;" xml:space="preserve">
<path d="M19,1H5C3.9,1,3,1.9,3,3v18c0,1.1,0.9,2,2,2h14c1.1,0,2-0.9,2-2V3C21,1.9,20.1,1,19,1z M11,14H6v-2h5V14z M9,18H6v-2h3V18z
	 M17.6,18c-0.8,0.1-1.8,0-2.1-0.3L12.3,21c-0.4,0.4-1,0.4-1.4,0l-0.7-0.7c-0.4-0.4-0.4-1,0-1.4l3.2-3.2c-0.3-0.3-0.4-1.3-0.2-2.1
	c0.1-0.4,0.4-0.8,0.8-0.9c1-0.5,2.7-1.6,3.5-1l-1.8,1.8c-0.4,0.4-0.4,1,0,1.4l0.7,0.7c0.4,0.4,1,0.4,1.4,0l1.8-1.8
	c0.6,0.6-0.5,2.5-1,3.5C18.4,17.6,18,17.9,17.6,18z M18,10H6V8h12V10z M18,6H6V4h12V6z"/>
</svg>
